<?xml version="1.0" standalone="no"?>
<!DOCTYPE svg PUBLIC "-//W3C//DTD SVG 1.1//EN" "http://www.w3.org/Graphics/SVG/1.1/DTD/svg11.dtd" >
<svg xmlns="http://www.w3.org/2000/svg" xmlns:xlink="http://www.w3.org/1999/xlink" version="1.1">
<metadata>
Created by FontForge 20170731 at Tue Jul  1 20:56:02 1997
 By ,,,
a_FuturaOrtodoxal *Arsenal Company (c)1996* FAX: (095)924-3775; e-Mail: arsenal@itco.msk.su; Phone: (095)924-5811 (Design and Featuring W.Chufarofsky &#38; M.Slutsker)
</metadata>
<defs>
<font id="AFuturaOrtoBold" horiz-adv-x="1290" >
  <font-face 
    font-family="a_FuturaOrto"
    font-weight="700"
    font-style="italic"
    font-stretch="normal"
    units-per-em="2048"
    panose-1="2 11 7 2 2 2 4 2 3 3"
    ascent="1638"
    descent="-410"
    x-height="1069"
    cap-height="1499"
    bbox="-74 -614 2501 1872"
    underline-thickness="210"
    underline-position="-645"
    slope="-12"
    unicode-range="U+0020-2122"
  />
<missing-glyph horiz-adv-x="1024" 
d="M128 0v1872h768v-1872h-768zM256 128h512v1616h-512v-1616z" />
    <glyph glyph-name=".notdef" horiz-adv-x="1024" 
d="M128 0v1872h768v-1872h-768zM256 128h512v1616h-512v-1616z" />
    <glyph glyph-name=".null" horiz-adv-x="0" 
 />
    <glyph glyph-name="nonmarkingreturn" horiz-adv-x="512" 
 />
    <glyph glyph-name="space" unicode=" " horiz-adv-x="512" 
 />
    <glyph glyph-name="exclam" unicode="!" horiz-adv-x="634" 
d="M467 418h-295v1126h295v-1126zM487 121q0 -71 -49 -120.5t-121 -49.5q-71 0 -120.5 49.5t-49.5 120.5t49.5 120.5t120.5 49.5q72 0 121 -49.5t49 -120.5z" />
    <glyph glyph-name="quotedbl" unicode="&#x22;" horiz-adv-x="768" 
d="M649 928h-196v571h196v-571zM315 928h-196v571h196v-571z" />
    <glyph glyph-name="numbersign" unicode="#" horiz-adv-x="1536" 
d="M1470 1083l-69 -204h-266l-78 -248h272l-63 -205h-277l-139 -426h-209l141 426h-231l-141 -426h-209l139 426h-272l73 205h267l79 248h-282l71 204h279l139 426h209l-137 -426h227l142 426h208l-139 -426h266zM932 879h-238l-82 -250h238z" />
    <glyph glyph-name="dollar" unicode="$" 
d="M1165 451q0 -184 -122 -307q-129 -131 -355 -144v-129h-86v129q-223 9 -345 126q-126 122 -126 343h295q0 -116 42 -168.5t134 -60.5v467q-4 2 -10 4q-225 105 -307 198t-82 236q0 142 106 250q113 115 293 127v102h86v-102q164 -16 278 -123q117 -110 117 -260h-290
q0 118 -105 139v-330l47 -22q250 -117 346 -230q84 -99 84 -245zM602 993v287q-54 -9 -86.5 -45t-32.5 -80q0 -93 119 -162zM872 449q0 64 -36 108q-40 49 -148 107v-422q184 16 184 207z" />
    <glyph glyph-name="percent" unicode="%" horiz-adv-x="1774" 
d="M1733 377q0 -196 -96 -307t-265 -111q-170 0 -265 110.5t-95 307.5q0 193 95.5 302t264.5 109q172 0 266.5 -107.5t94.5 -303.5zM1444 1516l-967 -1557h-153l966 1557h154zM758 1102q0 -197 -94 -306.5t-263 -109.5q-170 0 -265 109.5t-95 306.5q0 194 95.5 304
t264.5 110q170 0 263.5 -108.5t93.5 -305.5zM1516 377q0 266 -144 266q-141 0 -141 -270q0 -267 141 -267q144 0 144 271zM541 1102q0 266 -140 266q-141 0 -141 -266q0 -271 141 -271q140 0 140 271z" />
    <glyph glyph-name="ampersand" unicode="&#x26;" horiz-adv-x="1486" 
d="M1468 684l-288 -338l274 -346h-344l-125 143q-178 -188 -397 -188q-242 0 -382 163q-114 132 -114 290q0 252 314 469q-132 163 -132 292q0 144 127 246q118 96 263 96q171 0 271 -112q87 -96 87 -228q0 -175 -223 -344l213 -268l104 125h352zM723 1178q0 98 -66 98
q-86 0 -86 -105q0 -65 70 -151q82 74 82 158zM827 346l-262 330q-100 -70 -132 -119q-36 -55 -36 -149q0 -90 53 -146.5t142 -56.5q67 0 130 45q24 18 105 96z" />
    <glyph glyph-name="quotesingle" unicode="'" horiz-adv-x="512" 
d="M354 901h-196v572h196v-572z" />
    <glyph glyph-name="parenleft" unicode="(" horiz-adv-x="512" 
d="M504 -453l-254 -71q-201 609 -201 1153q0 546 201 1155l254 -72q-166 -626 -166 -1083q0 -456 166 -1082z" />
    <glyph glyph-name="parenright" unicode=")" horiz-adv-x="512" 
d="M463 629q0 -544 -201 -1153l-254 71q166 626 166 1082q0 457 -166 1083l254 72q201 -609 201 -1155z" />
    <glyph glyph-name="asterisk" unicode="*" horiz-adv-x="995" 
d="M863 1241l-229 -125l225 -117l-78 -143l-211 152l17 -258h-164l16 254l-217 -150l-90 141l240 123l-236 123l86 141l213 -153l-14 270h166l-17 -266l211 149z" />
    <glyph glyph-name="plus" unicode="+" horiz-adv-x="1747" 
d="M1487 569h-510v-524h-207v524h-510v205h510v520h207v-520h510v-205z" />
    <glyph glyph-name="comma" unicode="," horiz-adv-x="600" 
d="M528 303l-262 -561h-209l131 561h340z" />
    <glyph glyph-name="hyphen" unicode="-" horiz-adv-x="768" 
d="M612 432h-456v240h456v-240z" />
    <glyph glyph-name="hyphen" unicode="&#x2010;" horiz-adv-x="768" 
d="M612 432h-456v240h456v-240z" />
    <glyph glyph-name="period" unicode="." horiz-adv-x="600" 
d="M470 125q0 -71 -49 -120.5t-121 -49.5q-71 0 -120.5 49.5t-49.5 120.5t49.5 120.5t120.5 49.5q72 0 121 -49.5t49 -120.5z" />
    <glyph glyph-name="slash" unicode="/" horiz-adv-x="864" 
d="M938 1544l-723 -1734h-289l723 1734h289z" />
    <glyph glyph-name="zero" unicode="0" 
d="M1186 762q0 -363 -145 -583q-148 -224 -396 -224t-396 224q-145 220 -145 583q0 346 145 561q149 221 396 221t396 -221q145 -215 145 -561zM885 766q0 522 -240 522q-239 0 -239 -526q0 -551 239 -551q240 0 240 555z" />
    <glyph glyph-name="one" unicode="1" 
d="M1057 0h-830v258h271v975h-189v252h484v-1227h264v-258z" />
    <glyph glyph-name="two" unicode="2" 
d="M1214 0h-1169l571 657q160 184 211 274q43 78 43 159q0 93 -64 148q-62 52 -161 52q-122 0 -176 -62q-62 -71 -62 -249h-301v47q0 218 144 364q152 154 395 154q246 0 393 -135q133 -123 133 -301q0 -128 -63 -244q-65 -122 -273 -375l-190 -231h569v-258z" />
    <glyph glyph-name="three" unicode="3" 
d="M1174 514q0 -227 -150 -389q-157 -170 -392 -170q-255 0 -403 135t-148 375h297q0 -135 60 -195.5t198 -60.5q237 0 237 305q0 138 -69 204q-80 79 -271 79h-182l326 452h-516v250h1007l-364 -500q370 -81 370 -485z" />
    <glyph glyph-name="four" unicode="4" 
d="M1204 313h-205v-313h-297v313h-684l981 1260v-1020h205v-240zM702 553v303l-227 -303h227z" />
    <glyph glyph-name="five" unicode="5" 
d="M1161 508q0 -268 -162 -417q-147 -136 -381 -136q-238 0 -376 121t-138 327h287q0 -190 232 -190q121 0 177 67.5t56 229.5q0 250 -250 250q-173 0 -440 -80l1 8l73 797h868v-248h-619l-18 -262q109 24 168 24q241 0 380 -128q142 -131 142 -363z" />
    <glyph glyph-name="six" unicode="6" 
d="M1163 465q0 -219 -127 -357q-140 -153 -393 -153q-238 0 -384 149q-136 140 -136 345q0 141 48 249q54 119 237 371l313 430h342l-404 -549v0h1h1q213 0 355 -133q147 -137 147 -352zM856 461q0 248 -215 248t-215 -248t215 -248t215 248z" />
    <glyph glyph-name="seven" unicode="7" 
d="M1231 1485l-715 -1485h-332l617 1227h-690v258h1120z" />
    <glyph glyph-name="eight" unicode="8" 
d="M1163 430q0 -221 -148 -350q-142 -125 -370 -125t-370 125q-148 129 -148 350q0 270 211 379q-172 105 -172 313q0 189 135 305.5t344 116.5t343 -116.5t134 -305.5q0 -210 -170 -313q211 -109 211 -379zM827 1122q0 176 -182 176q-184 0 -184 -176q0 -207 182 -207h4
q180 0 180 207zM858 430q0 258 -213 258t-213 -258q0 -221 213 -221t213 221z" />
    <glyph glyph-name="nine" unicode="9" 
d="M1167 1051q0 -142 -48 -250q-53 -121 -236 -371l-314 -430h-342l404 549v0h-1h-1q-218 0 -358 130q-144 134 -144 355q0 219 127 357q140 153 393 153q238 0 384 -149q136 -139 136 -344zM864 1038q0 248 -215 248t-215 -248q0 -247 215 -247t215 247z" />
    <glyph glyph-name="colon" unicode=":" horiz-adv-x="615" 
d="M477 899q0 -71 -49 -120.5t-121 -49.5q-71 0 -120.5 49.5t-49.5 120.5t49.5 120.5t120.5 49.5q72 0 121 -49.5t49 -120.5zM475 133q0 -71 -49 -120.5t-121 -49.5q-71 0 -120.5 49.5t-49.5 120.5t49.5 120.5t120.5 49.5q72 0 121 -49.5t49 -120.5z" />
    <glyph glyph-name="semicolon" unicode=";" horiz-adv-x="615" 
d="M477 899q0 -71 -49 -120.5t-121 -49.5q-71 0 -120.5 49.5t-49.5 120.5t49.5 120.5t120.5 49.5q72 0 121 -49.5t49 -120.5zM506 303l-262 -561l-209 4l131 557h340z" />
    <glyph glyph-name="less" unicode="&#x3c;" horiz-adv-x="1747" 
d="M1501 37l-1255 512v151l1255 514v-247l-852 -342l852 -342v-246z" />
    <glyph glyph-name="equal" unicode="=" horiz-adv-x="1747" 
d="M1481 756h-1215v211h1215v-211zM1481 360h-1215v211h1215v-211z" />
    <glyph glyph-name="greater" unicode="&#x3e;" horiz-adv-x="1747" 
d="M1501 549l-1255 -512v246l850 342l-850 342v247l1255 -514v-151z" />
    <glyph glyph-name="question" unicode="?" horiz-adv-x="1032" 
d="M946 1165q0 -106 -54 -170q-62 -73 -257 -178q-170 -91 -170 -153q0 -66 74 -66q79 0 82 79v7h284q0 -147 -124 -227q-106 -70 -261 -70q-163 0 -260 95q-84 82 -84 186q0 82 58 147q68 74 249 174q170 93 170 174q0 123 -118 123q-122 0 -123 -140v-3h-289
q0 185 123 295q119 106 307 106q191 0 297 -114q96 -103 96 -265zM686 121q0 -69 -48 -117.5t-118 -48.5q-69 0 -117.5 48.5t-48.5 117.5t48.5 117.5t117.5 48.5q70 0 118 -48.5t48 -117.5z" />
    <glyph glyph-name="at" unicode="@" horiz-adv-x="2048" 
d="M1946 713q0 -259 -113 -464q-137 -249 -375 -249q-178 0 -178 201q-67 -102 -177 -155q-94 -46 -194 -46q-187 0 -294 114q-121 130 -121 392q0 251 165 422q153 159 353 159q124 0 204 -44q67 -36 142 -128l41 152h162l-140 -754q-8 -43 -8 -69q0 -78 53 -78
q161 0 241 208q58 151 58 341q0 254 -149 431q-181 216 -526 216q-357 0 -596 -220q-246 -226 -246 -583q0 -395 213 -611q203 -208 555 -208q138 0 297 36q171 40 278 103l74 -158q-114 -66 -326 -114q-193 -43 -327 -43q-444 0 -702 286q-249 275 -249 725q0 417 307 697
q299 272 722 272q370 0 611 -230q245 -234 245 -601zM1307 635q0 131 -82 210q-73 70 -174 70q-157 0 -263 -107q-108 -110 -108 -278q0 -181 53 -265q63 -99 215 -99q123 0 222 108.5t128 274.5q9 52 9 86z" />
    <glyph glyph-name="A" unicode="A" horiz-adv-x="1401" 
d="M1450 0h-307l-146 332h-591l-148 -332h-307l749 1573zM891 571l-191 430l-188 -430h379z" />
    <glyph glyph-name="B" unicode="B" horiz-adv-x="1306" 
d="M1208 459q0 -198 -120 -319q-139 -140 -414 -140h-502v1499h449q481 0 481 -393q0 -195 -154 -281q123 -40 194 -145q66 -98 66 -221zM801 1094q0 153 -195 153h-143v-325h184q154 0 154 172zM901 459q0 223 -223 223h-215v-430h190q248 0 248 207z" />
    <glyph glyph-name="C" unicode="C" horiz-adv-x="1388" 
d="M1309 47q-184 -92 -426 -92q-351 0 -574 232q-217 226 -217 563q0 325 217 554q228 240 578 240q245 0 422 -90v-321q-207 141 -422 141q-199 0 -342 -150q-146 -153 -146 -374q0 -231 135 -378t351 -147q203 0 424 144v-322z" />
    <glyph glyph-name="D" unicode="D" horiz-adv-x="1518" 
d="M1425 750q0 -332 -180 -527q-206 -223 -618 -223h-455v1499h455q410 0 618 -226q180 -196 180 -523zM1118 750q0 255 -108 368q-117 123 -402 123h-145v-983h145q285 0 402 124q108 113 108 368z" />
    <glyph glyph-name="E" unicode="E" horiz-adv-x="1161" 
d="M1038 0h-866v1499h866v-258h-571v-319h508v-246h-508v-418h571v-258z" />
    <glyph glyph-name="F" unicode="F" horiz-adv-x="1000" 
d="M973 1241h-506v-332h461v-252h-461v-657h-295v1499h801v-258z" />
    <glyph glyph-name="G" unicode="G" horiz-adv-x="1632" 
d="M1470 111q-107 -60 -256 -104q-175 -52 -315 -52q-368 0 -587.5 217.5t-219.5 575.5q0 379 228 590q223 206 611 206q263 0 519 -117v-286q-115 64 -264.5 104.5t-263.5 40.5q-234 0 -373 -141q-143 -144 -143 -397q0 -235 136.5 -385t356.5 -150q157 0 283 70v340h-308
v251h596v-763z" />
    <glyph glyph-name="H" unicode="H" horiz-adv-x="1573" 
d="M1401 0h-295v676h-639v-676h-295v1499h295v-571h639v571h295v-1499z" />
    <glyph glyph-name="I" unicode="I" horiz-adv-x="651" 
d="M473 0h-295v1499h295v-1499z" />
    <glyph glyph-name="J" unicode="J" horiz-adv-x="726" 
d="M549 383q0 -420 -375 -420q-93 0 -174 33v264q70 -41 129 -41q74 0 99.5 36.5t25.5 145.5v1098h295v-1116z" />
    <glyph glyph-name="K" unicode="K" horiz-adv-x="1366" 
d="M1378 0h-366l-549 750v-750h-291v1499h291v-627l536 627h342l-620 -690z" />
    <glyph glyph-name="L" unicode="L" horiz-adv-x="1004" 
d="M995 0h-817v1499h295v-1241h522v-258z" />
    <glyph glyph-name="M" unicode="M" horiz-adv-x="1774" 
d="M1737 0h-295l-117 756l-438 -830l-438 830l-117 -756h-295l276 1573l574 -1094l573 1094z" />
    <glyph glyph-name="N" unicode="N" horiz-adv-x="1696" 
d="M1524 -74l-1063 959v-885h-289v1573l1063 -957v885h289v-1575z" />
    <glyph glyph-name="O" unicode="O" horiz-adv-x="1778" 
d="M1686 750q0 -341 -229.5 -568t-567.5 -227t-567.5 227t-229.5 568t229.5 567.5t567.5 226.5t567.5 -226.5t229.5 -567.5zM1372 750q0 237 -133 380.5t-350 143.5t-350 -143.5t-133 -380.5q0 -234 133.5 -379.5t349.5 -145.5t349.5 145.5t133.5 379.5z" />
    <glyph glyph-name="P" unicode="P" horiz-adv-x="1195" 
d="M1114 1075q0 -258 -189 -367q-122 -71 -298 -71h-154v-637h-295v1499h449q178 0 300 -68q187 -106 187 -356zM813 1075q0 176 -211 176h-129v-366h129q115 0 163 44t48 146z" />
    <glyph glyph-name="Q" unicode="Q" horiz-adv-x="1825" 
d="M1739 -74h-348l-97 113q-192 -84 -383 -84q-338 0 -576 225q-243 231 -243 570t243 567q237 223 576 223t577 -223q243 -228 243 -567q0 -325 -222 -557zM1427 750q0 247 -146 396q-142 146 -370 146q-226 0 -369 -146q-147 -149 -147 -396q0 -248 147 -399
q143 -148 369 -148q103 0 203 45l-307 358h342l176 -203q102 142 102 347z" />
    <glyph glyph-name="R" unicode="R" horiz-adv-x="1199" 
d="M1217 0h-345l-362 657h-43v-657h-295v1499h449q178 0 300 -68q187 -106 187 -356q0 -328 -301 -413zM807 1075q0 176 -211 176h-129v-366h129q115 0 163 44t48 146z" />
    <glyph glyph-name="S" unicode="S" horiz-adv-x="1217" 
d="M1147 426q0 -203 -137 -332q-148 -139 -406 -139q-249 0 -386 123q-142 127 -142 368h307q0 -132 53 -187q50 -52 168 -52q125 0 181.5 48.5t56.5 168.5q0 79 -51 131q-59 58 -236 141q-233 109 -320 208q-83 95 -83 245q0 157 120 271q130 124 332 124q188 0 324 -114
q139 -118 139 -287h-301q0 149 -162 149q-72 0 -112.5 -38.5t-40.5 -92.5q0 -75 46.5 -119t207.5 -120q259 -122 357 -240q85 -102 85 -256z" />
    <glyph glyph-name="T" unicode="T" horiz-adv-x="1056" 
d="M1044 1241h-368v-1241h-295v1241h-369v258h1032v-258z" />
    <glyph glyph-name="U" unicode="U" horiz-adv-x="1475" 
d="M1311 512q0 -235 -153 -392q-160 -165 -421 -165t-421 165q-152 156 -152 392v987h295v-987q0 -136 70 -213q73 -80 208 -80t209 80q70 78 70 213v987h295v-987z" />
    <glyph glyph-name="V" unicode="V" horiz-adv-x="1323" 
d="M1329 1499l-667 -1573l-668 1573h313l355 -921l354 921h313z" />
    <glyph glyph-name="W" unicode="W" horiz-adv-x="1986" 
d="M1978 1501l-528 -1575l-457 1014l-456 -1014l-529 1575h297l279 -870l409 923l410 -923l278 870h297z" />
    <glyph glyph-name="X" unicode="X" horiz-adv-x="1262" 
d="M1268 0h-326l-311 535l-312 -535h-325l475 778l-440 721h325l277 -479l276 479h326l-440 -721z" />
    <glyph glyph-name="Y" unicode="Y" horiz-adv-x="1200" 
d="M1231 1499l-483 -819v-680h-295v680l-484 819h322l309 -559l309 559h322z" />
    <glyph glyph-name="Z" unicode="Z" horiz-adv-x="1242" 
d="M1217 1499l-729 -1241h676v-258h-1155l727 1241h-610v258h1091z" />
    <glyph glyph-name="bracketleft" unicode="[" horiz-adv-x="768" 
d="M694 -510h-553v2255h553v-246h-272v-1763h272v-246z" />
    <glyph glyph-name="backslash" unicode="\" horiz-adv-x="864" 
d="M938 -190h-289l-723 1734h289z" />
    <glyph glyph-name="bracketright" unicode="]" horiz-adv-x="768" 
d="M627 -510h-553v246h272v1763h-272v246h553v-2255z" />
    <glyph glyph-name="asciicircum" unicode="^" horiz-adv-x="1024" 
d="M992 1040h-299l-182 246l-180 -246h-299l364 504h234z" />
    <glyph glyph-name="underscore" unicode="_" horiz-adv-x="1024" 
d="M1036 -504h-1048v221h1048v-221z" />
    <glyph glyph-name="grave" unicode="`" horiz-adv-x="512" 
d="M528 1196h-268l-321 348h383z" />
    <glyph glyph-name="a" unicode="a" horiz-adv-x="1383" 
d="M1218 0h-279v162q-106 -203 -346 -203q-246 0 -381 169q-125 155 -125 407q0 242 147 408.5t359 166.5q237 0 344 -182h2v141h279v-1069zM939 565q0 129 -67 208q-72 85 -201 85q-124 0 -201 -86q-80 -89 -80 -237q0 -146 72.5 -232t191.5 -86q146 0 213 78q72 83 72 270
z" />
    <glyph glyph-name="b" unicode="b" horiz-adv-x="1383" 
d="M1296 535q0 -251 -126 -407q-137 -169 -383 -169q-240 0 -346 203v-162h-276v1690h283v-621q0 -30 -3.5 -74.5t-3.5 -66.5h2q107 182 344 182q213 0 361 -166.5t148 -408.5zM993 535q0 148 -80 237q-77 86 -201 86q-129 0 -202 -85q-69 -80 -69 -208q0 -187 74 -270
q69 -78 215 -78q119 0 191 86t72 232z" />
    <glyph glyph-name="c" unicode="c" horiz-adv-x="1083" 
d="M1002 31q-162 -68 -307 -68q-262 0 -432 154q-176 159 -176 415q0 247 174 412.5t434 165.5q148 0 307 -68v-294q-167 98 -286 98q-326 0 -326 -314q0 -305 326 -305q152 0 286 105v-301z" />
    <glyph glyph-name="d" unicode="d" horiz-adv-x="1383" 
d="M1218 0h-277v162q-106 -203 -346 -203q-246 0 -382 169q-126 156 -126 407q0 242 147.5 408.5t360.5 166.5q237 0 344 -182h2q0 22 -3 66.5t-3 74.5v621h283v-1690zM941 565q0 129 -67 208q-72 85 -201 85q-124 0 -202 -86q-81 -89 -81 -237q0 -146 73.5 -232t192.5 -86
q146 0 213 78q72 83 72 270z" />
    <glyph glyph-name="e" unicode="e" horiz-adv-x="1320" 
d="M1236 522h-854q0 -146 70 -231q75 -92 213 -92q198 0 247 137h291q-73 -197 -202 -287t-336 -90q-267 0 -427 172q-151 161 -151 404q0 238 166 406.5t412 168.5q256 0 411 -153q160 -159 160 -435zM931 702q-83 181 -266 181q-179 0 -258 -181h524z" />
    <glyph glyph-name="f" unicode="f" horiz-adv-x="631" 
d="M680 823h-227v-823h-283v823h-152v246h152v272q0 212 73 303q70 87 226 87q101 0 211 -41v-240q-70 35 -127 35q-100 0 -100 -150v-266h227v-246z" />
    <glyph glyph-name="g" unicode="g" horiz-adv-x="1383" 
d="M1218 -31q0 -301 -129 -440q-131 -143 -420 -143q-541 0 -541 456h289q0 -131 54 -176t198 -45q268 0 268 348v189q-97 -183 -344 -183q-225 0 -360 136q-146 149 -146 424q0 265 136 420t370 155q239 0 352 -195v154h273v-1100zM937 504q0 197 -65 278.5t-218 81.5
q-122 0 -190 -80q-74 -86 -74 -249q0 -147 81 -235q77 -85 200 -85q128 0 199 83q67 78 67 206z" />
    <glyph glyph-name="h" unicode="h" horiz-adv-x="1316" 
d="M1157 0h-283v625q0 137 -46 192q-39 47 -123 47q-256 0 -256 -284v-580h-283v1690h283v-750q46 86 153 132q89 38 186 38q176 0 274 -122q95 -118 95 -324v-664z" />
    <glyph glyph-name="i" unicode="i" horiz-adv-x="614" 
d="M471 1380q0 -66 -48 -112.5t-116 -46.5q-66 0 -115 47.5t-49 111.5q0 68 49 118t115 50q67 0 115.5 -50t48.5 -118zM449 0h-283v1112h283v-1112z" />
    <glyph glyph-name="j" unicode="j" horiz-adv-x="614" 
d="M471 1380q0 -66 -48 -112.5t-116 -46.5q-66 0 -115 47.5t-49 111.5q0 68 49 118t115 50q67 0 115.5 -50t48.5 -118zM449 -614h-283v1726h283v-1726z" />
    <glyph glyph-name="k" unicode="k" horiz-adv-x="1169" 
d="M1178 0h-367l-365 449v-449h-280v1692h280v-1016l304 393h354l-428 -502z" />
    <glyph glyph-name="l" unicode="l" horiz-adv-x="623" 
d="M453 2h-283v1688h283v-1688z" />
    <glyph glyph-name="m" unicode="m" horiz-adv-x="1822" 
d="M1663 0h-281v668q0 120 -33 165q-27 37 -92 37q-202 0 -202 -254v-616h-281v668q0 117 -33 162q-29 40 -98 40q-197 0 -197 -256v-614h-280v1069h272v-121q102 162 312 162q168 0 254 -158q128 158 303 158q356 0 356 -442v-668z" />
    <glyph glyph-name="n" unicode="n" horiz-adv-x="1306" 
d="M1147 0h-283v625q0 138 -43 192q-36 47 -119 47q-256 0 -256 -284v-580h-280v1069h272v-154q54 86 161 143q99 52 187 52q175 0 270 -122q91 -117 91 -324v-664z" />
    <glyph glyph-name="o" unicode="o" horiz-adv-x="1350" 
d="M1263 535q0 -240 -163 -406q-169 -170 -425 -170t-425 170q-163 166 -163 406t163 405q169 170 425 170t425 -170q163 -165 163 -405zM959 535q0 153 -82 238q-77 79 -202 79t-202 -79q-83 -86 -83 -238q0 -153 83 -238q77 -80 202 -80t202 80q82 85 82 238z" />
    <glyph glyph-name="p" unicode="p" horiz-adv-x="1383" 
d="M1296 535q0 -266 -148 -425q-142 -151 -362 -151q-238 0 -344 178q0 -21 3.5 -64.5t3.5 -72.5v-614h-283v1683h276v-154q102 195 344 195q247 0 384 -168q126 -156 126 -407zM993 535q0 329 -268 329q-283 0 -283 -360q0 -127 68 -205q72 -82 199 -82q284 0 284 318z" />
    <glyph glyph-name="q" unicode="q" horiz-adv-x="1383" 
d="M1218 -614h-283v614q0 29 3 72.5t3 64.5q-106 -178 -344 -178q-220 0 -362 151q-148 159 -148 425q0 251 126 407q137 168 384 168q242 0 344 -195v154h277v-1683zM941 504q0 360 -283 360q-268 0 -268 -329q0 -318 285 -318q127 0 198 82q68 78 68 205z" />
    <glyph glyph-name="r" unicode="r" horiz-adv-x="849" 
d="M825 819q-70 35 -147 35q-84 0 -144 -57q-83 -80 -83 -250v-547h-283v1069h276v-141q83 178 236 178q71 0 145 -37v-250z" />
    <glyph glyph-name="s" unicode="s" horiz-adv-x="1030" 
d="M949 303q0 -149 -100 -241q-111 -103 -318 -103q-450 0 -450 385h276q0 -151 166 -151q144 0 144 118q0 55 -41 85q-33 24 -142 59q-205 66 -280 142q-72 73 -72 208q0 142 131 228q115 75 273 75q134 0 239 -81q127 -98 127 -267h-272q0 71 -25.5 96t-83.5 25
q-119 0 -119 -90q0 -71 136 -115q197 -64 286 -131q125 -95 125 -242z" />
    <glyph glyph-name="t" unicode="t" horiz-adv-x="633" 
d="M657 823h-202v-823h-281v823h-137v246h137v344h281v-344h202v-246z" />
    <glyph glyph-name="u" unicode="u" horiz-adv-x="1266" 
d="M1104 430q0 -198 -116 -328q-128 -143 -355 -143q-226 0 -355 143q-116 130 -116 328v639h280v-637q0 -121 47 -173q44 -48 144 -48q101 0 145.5 49.5t44.5 171.5v637h281v-639z" />
    <glyph glyph-name="v" unicode="v" horiz-adv-x="1069" 
d="M1087 1069l-552 -1124l-553 1124h294l259 -571l258 571h294z" />
    <glyph glyph-name="w" unicode="w" horiz-adv-x="1610" 
d="M1622 1069l-467 -1124l-350 663l-350 -663l-467 1124h295l213 -557l309 598l309 -598l213 557h295z" />
    <glyph glyph-name="x" unicode="x" horiz-adv-x="1129" 
d="M1132 0h-324l-244 344l-243 -344h-324l408 549l-388 520h320l227 -307l228 307h319l-387 -520z" />
    <glyph glyph-name="y" unicode="y" horiz-adv-x="1194" 
d="M1212 1069l-708 -1683h-299l270 639l-475 1044h307l314 -702l297 702h294z" />
    <glyph glyph-name="z" unicode="z" horiz-adv-x="1038" 
d="M1014 1069l-531 -823h492v-246h-975l536 823h-469v246h947z" />
    <glyph glyph-name="braceleft" unicode="{" horiz-adv-x="1024" 
d="M909 -512h-131q-233 0 -327 117q-82 101 -82 325v377q0 191 -148 191h-98v237h102q144 0 144 191v377q0 225 82 325q94 117 327 117h131v-246h-123q-51 0 -71 -9q-31 -13 -40 -57q-7 -34 -7 -108v-375q0 -147 -53 -229q-39 -62 -126 -105q179 -78 179 -331v-377
q0 -78 5 -101q12 -60 59 -70q18 -3 50 -3h127v-246z" />
    <glyph glyph-name="bar" unicode="|" horiz-adv-x="1024" 
d="M643 -479h-262v2064h262v-2064z" />
    <glyph glyph-name="braceright" unicode="}" horiz-adv-x="1024" 
d="M901 498h-98q-148 0 -148 -191v-377q0 -224 -82 -325q-94 -117 -327 -117h-131v246h127q92 0 106 62q8 34 8 112v377q0 253 179 331q-87 43 -126 105q-53 82 -53 229v375q0 82 -6 105q-13 60 -67 67q-17 2 -45 2h-123v246h131q233 0 327 -117q82 -100 82 -325v-377
q0 -191 144 -191h102v-237z" />
    <glyph glyph-name="asciitilde" unicode="~" horiz-adv-x="1536" 
d="M1360 676q-154 -98 -316 -98q-88 0 -280 69.5t-272 69.5q-165 0 -314 -139v249q150 109 314 109q92 0 290.5 -68.5t253.5 -68.5q159 0 324 137v-260z" />
    <glyph glyph-name="currency" unicode="&#xa4;" 
d="M1243 473l-162 -166l-204 203q-119 -51 -232 -51q-101 0 -229 51l-205 -203l-164 166l197 197q-70 118 -70 235q0 120 70 238l-197 196l164 164l205 -203q126 54 229 54q95 0 229 -56l207 205l162 -164l-196 -196q71 -119 71 -238q0 -108 -69 -219zM864 909
q0 104 -61 162q-57 55 -154 55t-155 -55q-62 -58 -62 -162q0 -108 61 -167q58 -56 156 -56q95 0 155 58.5t60 164.5z" />
    <glyph glyph-name="brokenbar" unicode="&#xa6;" horiz-adv-x="1024" 
d="M643 635h-262v819h262v-819zM643 -346h-262v819h262v-819z" />
    <glyph glyph-name="section" unicode="&#xa7;" horiz-adv-x="1030" 
d="M995 549q0 -223 -186 -344q141 -111 141 -283q0 -151 -124 -263t-300 -112q-185 0 -305.5 110.5t-120.5 274.5v91h301q3 -121 12 -149q23 -73 111 -73q65 0 92 30t27 106q0 67 -36 96q-27 22 -150 69q-220 84 -262 121q-152 136 -152 320q0 207 190 334
q-141 108 -141 274q0 157 124 264t314 107q189 0 302.5 -105.5t113.5 -277.5v-84h-305q-4 148 -29 193q-22 40 -90 40q-116 0 -116 -129q0 -79 36 -110q27 -24 152 -70q211 -78 306 -179.5t95 -250.5zM688 543q0 192 -168 192q-74 0 -122 -51.5t-48 -140.5q0 -197 170 -197
q72 0 120 54t48 143z" />
    <glyph glyph-name="copyright" unicode="&#xa9;" horiz-adv-x="1747" 
d="M1634 750q0 -319 -219 -533q-232 -227 -543 -227q-305 0 -534 227q-223 221 -223 533q0 314 223 542q219 224 534 224q317 0 543 -226q219 -219 219 -540zM1511 754q0 262 -186.5 448.5t-450.5 186.5q-266 0 -448 -185q-188 -191 -188 -450q0 -263 188 -451
q184 -184 448 -184q260 0 453 188q184 179 184 447zM1253 610q-9 -143 -112.5 -229t-266.5 -86q-191 0 -301 120.5t-110 329.5q0 212 112.5 337.5t301.5 125.5q155 0 255.5 -80t108.5 -210h-192q-16 151 -177 151q-94 0 -147 -83t-53 -232q0 -310 209 -310q155 0 174 166
h198z" />
    <glyph glyph-name="guillemotleft" unicode="&#xab;" horiz-adv-x="1024" 
d="M979 166h-242l-245 371l-7 2l2 2l-2 2l7 2l2 3l1 2l6 9l1 1l4 6l231 349h242l-195 -374zM494 166h-242l-252 373l2 2l-2 2l6 2l1 2l4 6l241 362h242l-195 -374z" />
    <glyph glyph-name="logicalnot" unicode="&#xac;" horiz-adv-x="1747" 
d="M1487 371h-205v313h-1022v201h1227v-514z" />
    <glyph glyph-name="minus" unicode="&#xad;" horiz-adv-x="1747" 
d="M1487 569h-1227v205h1227v-205z" />
    <glyph glyph-name="minus" unicode="&#x2212;" horiz-adv-x="1747" 
d="M1487 569h-1227v205h1227v-205z" />
    <glyph glyph-name="registered" unicode="&#xae;" horiz-adv-x="1747" 
d="M1634 750q0 -320 -223 -537q-229 -223 -539 -223q-314 0 -540 231q-217 222 -217 529q0 211 110 397q103 174 273 271.5t374 97.5q320 0 547 -230q215 -218 215 -536zM1511 741q0 269 -183 458q-186 190 -454 190q-261 0 -442 -181q-194 -194 -194 -454q0 -261 184 -447
q190 -192 450 -192q255 0 451 188q188 180 188 438zM1253 344h-229l-160 346h-102v-346h-205v844h332q360 0 360 -242q0 -180 -184 -225zM1038 934q0 125 -184 125h-92v-244h102q174 0 174 119z" />
    <glyph glyph-name="degree" unicode="&#xb0;" horiz-adv-x="690" 
d="M655 1188q0 -129 -91.5 -220t-219.5 -91q-129 0 -218 91t-89 220q0 128 90.5 219.5t218.5 91.5q127 0 218 -92.5t91 -218.5zM524 1188q0 74 -52 127t-126 53q-75 0 -127.5 -53t-52.5 -127q0 -75 52.5 -127.5t127.5 -52.5q74 0 126 53t52 127z" />
    <glyph glyph-name="plusminus" unicode="&#xb1;" horiz-adv-x="1747" 
d="M1487 715h-510v-334h-207v334h-510v203h510v335h207v-335h510v-203zM1487 -2h-1227v203h1227v-203z" />
    <glyph glyph-name="mu1" unicode="&#xb5;" horiz-adv-x="1278" 
d="M1212 1118l-196 -1118h-275l17 119q-82 -152 -219 -152h-10q-27 1 -56 8h-2q-88 22 -152 115l-90 -539h-295l275 1567h297l-78 -446q-31 -177 -31 -275q0 -188 172 -188q103 0 159 85t95 298l95 526h294z" />
    <glyph glyph-name="paragraph" unicode="&#xb6;" horiz-adv-x="1049" 
d="M1008 1401h-117v-1401h-154v1401h-164v-1401h-155v803q-170 6 -273.5 103t-103.5 251q0 162 110 260.5t291 98.5h566v-115z" />
    <glyph glyph-name="periodcentered" unicode="&#xb7;" horiz-adv-x="600" 
d="M477 737q0 -72 -52 -124t-125 -52q-72 0 -124 52.5t-52 123.5q0 73 51.5 124.5t124.5 51.5q74 0 125.5 -51t51.5 -125z" />
    <glyph glyph-name="periodcentered" unicode="&#x2219;" horiz-adv-x="600" 
d="M477 737q0 -72 -52 -124t-125 -52q-72 0 -124 52.5t-52 123.5q0 73 51.5 124.5t124.5 51.5q74 0 125.5 -51t51.5 -125z" />
    <glyph glyph-name="guillemotright" unicode="&#xbb;" horiz-adv-x="1024" 
d="M1024 539l-6 -2l-246 -371h-242l195 375l-195 374h242l252 -372l-2 -2zM539 539l-7 -2l-245 -371h-242l195 375l-195 374h242l245 -370l7 -2l-2 -2z" />
    <glyph glyph-name="multiply" unicode="&#xd7;" horiz-adv-x="1747" 
d="M1491 172l-164 -158l-453 447l-452 -447l-164 158l453 453l-453 454l164 158l452 -449l453 449l164 -158l-453 -454z" />
    <glyph glyph-name="divide" unicode="&#xf7;" horiz-adv-x="1747" 
d="M1028 1087q0 -63 -45 -108t-109 -45q-63 0 -108 45t-45 108t45 108.5t108 45.5q64 0 109 -45.5t45 -108.5zM1489 569h-1229v205h1229v-205zM1028 256q0 -63 -45 -108.5t-109 -45.5q-63 0 -108 45.5t-45 108.5t45 108.5t108 45.5q64 0 109 -45.5t45 -108.5z" />
    <glyph glyph-name="mu" unicode="&#x3bc;" 
d="M1243 473l-162 -166l-204 203q-119 -51 -232 -51q-101 0 -229 51l-205 -203l-164 166l197 197q-70 118 -70 235q0 120 70 238l-197 196l164 164l205 -203q126 54 229 54q95 0 229 -56l207 205l162 -164l-196 -196q71 -119 71 -238q0 -108 -69 -219zM864 909
q0 104 -61 162q-57 55 -154 55t-155 -55q-62 -58 -62 -162q0 -108 61 -167q58 -56 156 -56q95 0 155 58.5t60 164.5z" />
    <glyph glyph-name="afii10023" unicode="&#x401;" horiz-adv-x="1137" 
d="M896 1697q0 -51 -36 -86.5t-87 -35.5t-87 35.5t-36 86.5t36 86.5t87 35.5t87 -35.5t36 -86.5zM548 1697q0 -51 -35.5 -86.5t-86.5 -35.5t-87 35.5t-36 86.5t36 86.5t87 35.5t86.5 -35.5t35.5 -86.5zM1018 0h-842v1499h842v-209h-603v-381h550v-202h-550v-497h603v-210z
" />
    <glyph glyph-name="afii10051" unicode="&#x402;" 
d="M1243 473l-162 -166l-204 203q-119 -51 -232 -51q-101 0 -229 51l-205 -203l-164 166l197 197q-70 118 -70 235q0 120 70 238l-197 196l164 164l205 -203q126 54 229 54q95 0 229 -56l207 205l162 -164l-196 -196q71 -119 71 -238q0 -108 -69 -219zM864 909
q0 104 -61 162q-57 55 -154 55t-155 -55q-62 -58 -62 -162q0 -108 61 -167q58 -56 156 -56q95 0 155 58.5t60 164.5z" />
    <glyph glyph-name="afii10052" unicode="&#x403;" 
d="M1243 473l-162 -166l-204 203q-119 -51 -232 -51q-101 0 -229 51l-205 -203l-164 166l197 197q-70 118 -70 235q0 120 70 238l-197 196l164 164l205 -203q126 54 229 54q95 0 229 -56l207 205l162 -164l-196 -196q71 -119 71 -238q0 -108 -69 -219zM864 909
q0 104 -61 162q-57 55 -154 55t-155 -55q-62 -58 -62 -162q0 -108 61 -167q58 -56 156 -56q95 0 155 58.5t60 164.5z" />
    <glyph glyph-name="afii10053" unicode="&#x404;" 
d="M1243 473l-162 -166l-204 203q-119 -51 -232 -51q-101 0 -229 51l-205 -203l-164 166l197 197q-70 118 -70 235q0 120 70 238l-197 196l164 164l205 -203q126 54 229 54q95 0 229 -56l207 205l162 -164l-196 -196q71 -119 71 -238q0 -108 -69 -219zM864 909
q0 104 -61 162q-57 55 -154 55t-155 -55q-62 -58 -62 -162q0 -108 61 -167q58 -56 156 -56q95 0 155 58.5t60 164.5z" />
    <glyph glyph-name="afii10054" unicode="&#x405;" 
d="M1243 473l-162 -166l-204 203q-119 -51 -232 -51q-101 0 -229 51l-205 -203l-164 166l197 197q-70 118 -70 235q0 120 70 238l-197 196l164 164l205 -203q126 54 229 54q95 0 229 -56l207 205l162 -164l-196 -196q71 -119 71 -238q0 -108 -69 -219zM864 909
q0 104 -61 162q-57 55 -154 55t-155 -55q-62 -58 -62 -162q0 -108 61 -167q58 -56 156 -56q95 0 155 58.5t60 164.5z" />
    <glyph glyph-name="afii10055" unicode="&#x406;" 
d="M1243 473l-162 -166l-204 203q-119 -51 -232 -51q-101 0 -229 51l-205 -203l-164 166l197 197q-70 118 -70 235q0 120 70 238l-197 196l164 164l205 -203q126 54 229 54q95 0 229 -56l207 205l162 -164l-196 -196q71 -119 71 -238q0 -108 -69 -219zM864 909
q0 104 -61 162q-57 55 -154 55t-155 -55q-62 -58 -62 -162q0 -108 61 -167q58 -56 156 -56q95 0 155 58.5t60 164.5z" />
    <glyph glyph-name="afii10056" unicode="&#x407;" 
d="M1243 473l-162 -166l-204 203q-119 -51 -232 -51q-101 0 -229 51l-205 -203l-164 166l197 197q-70 118 -70 235q0 120 70 238l-197 196l164 164l205 -203q126 54 229 54q95 0 229 -56l207 205l162 -164l-196 -196q71 -119 71 -238q0 -108 -69 -219zM864 909
q0 104 -61 162q-57 55 -154 55t-155 -55q-62 -58 -62 -162q0 -108 61 -167q58 -56 156 -56q95 0 155 58.5t60 164.5z" />
    <glyph glyph-name="afii10057" unicode="&#x408;" 
d="M1243 473l-162 -166l-204 203q-119 -51 -232 -51q-101 0 -229 51l-205 -203l-164 166l197 197q-70 118 -70 235q0 120 70 238l-197 196l164 164l205 -203q126 54 229 54q95 0 229 -56l207 205l162 -164l-196 -196q71 -119 71 -238q0 -108 -69 -219zM864 909
q0 104 -61 162q-57 55 -154 55t-155 -55q-62 -58 -62 -162q0 -108 61 -167q58 -56 156 -56q95 0 155 58.5t60 164.5z" />
    <glyph glyph-name="afii10058" unicode="&#x409;" 
d="M1243 473l-162 -166l-204 203q-119 -51 -232 -51q-101 0 -229 51l-205 -203l-164 166l197 197q-70 118 -70 235q0 120 70 238l-197 196l164 164l205 -203q126 54 229 54q95 0 229 -56l207 205l162 -164l-196 -196q71 -119 71 -238q0 -108 -69 -219zM864 909
q0 104 -61 162q-57 55 -154 55t-155 -55q-62 -58 -62 -162q0 -108 61 -167q58 -56 156 -56q95 0 155 58.5t60 164.5z" />
    <glyph glyph-name="afii10059" unicode="&#x40a;" 
d="M1243 473l-162 -166l-204 203q-119 -51 -232 -51q-101 0 -229 51l-205 -203l-164 166l197 197q-70 118 -70 235q0 120 70 238l-197 196l164 164l205 -203q126 54 229 54q95 0 229 -56l207 205l162 -164l-196 -196q71 -119 71 -238q0 -108 -69 -219zM864 909
q0 104 -61 162q-57 55 -154 55t-155 -55q-62 -58 -62 -162q0 -108 61 -167q58 -56 156 -56q95 0 155 58.5t60 164.5z" />
    <glyph glyph-name="afii10060" unicode="&#x40b;" 
d="M1243 473l-162 -166l-204 203q-119 -51 -232 -51q-101 0 -229 51l-205 -203l-164 166l197 197q-70 118 -70 235q0 120 70 238l-197 196l164 164l205 -203q126 54 229 54q95 0 229 -56l207 205l162 -164l-196 -196q71 -119 71 -238q0 -108 -69 -219zM864 909
q0 104 -61 162q-57 55 -154 55t-155 -55q-62 -58 -62 -162q0 -108 61 -167q58 -56 156 -56q95 0 155 58.5t60 164.5z" />
    <glyph glyph-name="afii10061" unicode="&#x40c;" 
d="M1243 473l-162 -166l-204 203q-119 -51 -232 -51q-101 0 -229 51l-205 -203l-164 166l197 197q-70 118 -70 235q0 120 70 238l-197 196l164 164l205 -203q126 54 229 54q95 0 229 -56l207 205l162 -164l-196 -196q71 -119 71 -238q0 -108 -69 -219zM864 909
q0 104 -61 162q-57 55 -154 55t-155 -55q-62 -58 -62 -162q0 -108 61 -167q58 -56 156 -56q95 0 155 58.5t60 164.5z" />
    <glyph glyph-name="afii10062" unicode="&#x40e;" 
d="M1243 473l-162 -166l-204 203q-119 -51 -232 -51q-101 0 -229 51l-205 -203l-164 166l197 197q-70 118 -70 235q0 120 70 238l-197 196l164 164l205 -203q126 54 229 54q95 0 229 -56l207 205l162 -164l-196 -196q71 -119 71 -238q0 -108 -69 -219zM864 909
q0 104 -61 162q-57 55 -154 55t-155 -55q-62 -58 -62 -162q0 -108 61 -167q58 -56 156 -56q95 0 155 58.5t60 164.5z" />
    <glyph glyph-name="afii10145" unicode="&#x40f;" 
d="M1243 473l-162 -166l-204 203q-119 -51 -232 -51q-101 0 -229 51l-205 -203l-164 166l197 197q-70 118 -70 235q0 120 70 238l-197 196l164 164l205 -203q126 54 229 54q95 0 229 -56l207 205l162 -164l-196 -196q71 -119 71 -238q0 -108 -69 -219zM864 909
q0 104 -61 162q-57 55 -154 55t-155 -55q-62 -58 -62 -162q0 -108 61 -167q58 -56 156 -56q95 0 155 58.5t60 164.5z" />
    <glyph glyph-name="afii10017" unicode="&#x410;" horiz-adv-x="1403" 
d="M1451 0h-307l-146 332h-591l-148 -332h-307l749 1573zM892 571l-191 430l-188 -430h379z" />
    <glyph glyph-name="afii10018" unicode="&#x411;" horiz-adv-x="1263" 
d="M1170 479q0 -204 -138 -335q-151 -144 -415 -144h-444v1499h911v-258h-616v-287h149q261 0 409 -129q144 -127 144 -346zM869 479q0 228 -260 228h-141v-459h141q143 0 203 56q57 54 57 175z" />
    <glyph glyph-name="afii10019" unicode="&#x412;" horiz-adv-x="1307" 
d="M1208 459q0 -198 -120 -319q-139 -140 -414 -140h-502v1499h449q481 0 481 -393q0 -195 -154 -281q123 -40 194 -145q66 -98 66 -221zM801 1094q0 153 -195 153h-143v-325h184q154 0 154 172zM901 459q0 223 -223 223h-215v-430h190q248 0 248 207z" />
    <glyph glyph-name="afii10020" unicode="&#x413;" horiz-adv-x="995" 
d="M941 1241h-469v-1241h-295v1499h764v-258z" />
    <glyph glyph-name="afii10021" unicode="&#x414;" horiz-adv-x="1458" 
d="M1421 -295h-291v295h-839v-295h-291v549q126 0 170 55q49 60 49 240v950h1049v-1245h153v-549zM971 254v993h-463v-727q0 -141 -57 -266h520z" />
    <glyph glyph-name="afii10022" unicode="&#x415;" horiz-adv-x="1161" 
d="M1038 0h-866v1499h866v-258h-571v-319h508v-246h-508v-418h571v-258z" />
    <glyph glyph-name="afii10024" unicode="&#x416;" horiz-adv-x="1952" 
d="M1968 0h-348l-498 750v-750h-293v750l-497 -750h-348l583 809l-569 690h342l489 -633v633h293v-633l490 633h342l-570 -690z" />
    <glyph glyph-name="afii10025" unicode="&#x417;" horiz-adv-x="1280" 
d="M1182 446q0 -224 -150 -357.5t-407 -133.5q-240 0 -388 133q-157 140 -157 385h293q0 -164 68 -223q53 -47 184 -47q252 0 252 256q0 227 -252 227h-156v246h133q118 0 168.5 42.5t50.5 145.5q0 178 -196 178q-203 0 -203 -178h-291q0 199 146 315q136 109 348 109
q249 0 382 -129q117 -112 117 -291q0 -222 -172 -301q230 -104 230 -377z" />
    <glyph glyph-name="afii10026" unicode="&#x418;" horiz-adv-x="1581" 
d="M1409 -2h-295v932l-942 -1004v1575h294v-930l943 1002v-1575z" />
    <glyph glyph-name="afii10027" unicode="&#x419;" horiz-adv-x="1581" 
d="M1122 1872q0 -130 -99 -210q-92 -75 -223 -75t-223 75q-98 80 -98 210h215q0 -107 106 -107q107 0 107 107h215zM1409 -2h-295v932l-942 -1004v1575h294v-930l943 1002v-1575z" />
    <glyph glyph-name="afii10028" unicode="&#x41a;" horiz-adv-x="1368" 
d="M1380 0h-366l-549 750v-750h-293v1499h293v-627l536 627h342l-620 -690z" />
    <glyph glyph-name="afii10029" unicode="&#x41b;" horiz-adv-x="1418" 
d="M1241 0h-295v1251h-430v-757q0 -279 -82.5 -402t-277.5 -123q-80 0 -156 31v260q67 -39 127 -39q52 0 74 42q30 60 30 237v999h1010v-1499z" />
    <glyph glyph-name="afii10030" unicode="&#x41c;" horiz-adv-x="1772" 
d="M1736 0h-295l-117 756l-438 -830l-438 830l-117 -756h-295l276 1573l574 -1094l573 1094z" />
    <glyph glyph-name="afii10031" unicode="&#x41d;" horiz-adv-x="1573" 
d="M1401 0h-295v676h-639v-676h-295v1499h295v-571h639v571h295v-1499z" />
    <glyph glyph-name="afii10032" unicode="&#x41e;" horiz-adv-x="1778" 
d="M1686 750q0 -341 -229.5 -568t-567.5 -227t-567.5 227t-229.5 568t229.5 567.5t567.5 226.5t567.5 -226.5t229.5 -567.5zM1372 750q0 237 -133 380.5t-350 143.5t-350 -143.5t-133 -380.5q0 -234 133.5 -379.5t349.5 -145.5t349.5 145.5t133.5 379.5z" />
    <glyph glyph-name="afii10033" unicode="&#x41f;" horiz-adv-x="1548" 
d="M1376 0h-295v1241h-614v-1241h-295v1499h1204v-1499z" />
    <glyph glyph-name="afii10034" unicode="&#x420;" horiz-adv-x="1241" 
d="M1165 1051q0 -196 -119 -315q-135 -134 -393 -134h-182v-602h-293v1499h467q255 0 391 -122q129 -117 129 -326zM866 1051q0 100 -46 146q-55 56 -189 56h-160v-403h154q142 0 194 48q47 43 47 153z" />
    <glyph glyph-name="afii10035" unicode="&#x421;" horiz-adv-x="1388" 
d="M1309 47q-184 -92 -426 -92q-351 0 -574 232q-217 226 -217 563q0 325 217 554q228 240 578 240q245 0 422 -90v-321q-207 141 -422 141q-199 0 -342 -150q-146 -153 -146 -374q0 -231 135 -378t351 -147q203 0 424 144v-322z" />
    <glyph glyph-name="afii10036" unicode="&#x422;" horiz-adv-x="1056" 
d="M1044 1241h-368v-1241h-295v1241h-369v258h1032v-258z" />
    <glyph glyph-name="afii10037" unicode="&#x423;" horiz-adv-x="1319" 
d="M1343 1499l-679 -1499h-295l194 430l-563 1069h313l392 -758l342 758h296z" />
    <glyph glyph-name="afii10038" unicode="&#x424;" horiz-adv-x="1794" 
d="M1702 795q0 -259 -154 -414q-165 -166 -465 -166h-41v-215h-290v215h-41q-300 0 -465 166q-154 155 -154 414q0 287 190 448q178 152 470 152v153h290v-153q292 0 470 -152q190 -161 190 -448zM1407 795q0 354 -324 354h-41v-694q365 0 365 340zM752 455v694h-41
q-324 0 -324 -354q0 -182 95 -264q88 -76 270 -76z" />
    <glyph glyph-name="afii10039" unicode="&#x425;" horiz-adv-x="1262" 
d="M1268 0h-326l-311 535l-312 -535h-325l475 778l-440 721h325l277 -479l276 479h326l-440 -721z" />
    <glyph glyph-name="afii10040" unicode="&#x426;" horiz-adv-x="1531" 
d="M1506 -295h-288v295h-1045v1499h295v-1245h590v1245h295v-1245h153v-549z" />
    <glyph glyph-name="afii10041" unicode="&#x427;" horiz-adv-x="1307" 
d="M1130 0h-294v621q-123 -19 -263 -19q-253 0 -367 115q-110 112 -110 354v428h291v-422q0 -127 42.5 -179t143.5 -52q119 0 263 20v633h294v-1499z" />
    <glyph glyph-name="afii10042" unicode="&#x428;" horiz-adv-x="2036" 
d="M1864 0h-1692v1499h291v-1249h409v1249h291v-1249h410v1249h291v-1499z" />
    <glyph glyph-name="afii10043" unicode="&#x429;" horiz-adv-x="2043" 
d="M2018 -299h-288v295l-3 4h-1554v1499h291v-1249h409v1249h291v-1249h410v1249h291v-1249h153v-549z" />
    <glyph glyph-name="afii10044" unicode="&#x42a;" horiz-adv-x="1418" 
d="M1339 479q0 -209 -134 -335q-151 -144 -441 -144h-432v1241h-307v258h602v-551h137q575 0 575 -469zM1032 479q0 116 -60 167q-64 54 -216 54h-129v-452h129q155 0 218 56q58 53 58 175z" />
    <glyph glyph-name="afii10045" unicode="&#x42b;" horiz-adv-x="1776" 
d="M1604 0h-295v1499h295v-1499zM1163 479q0 -212 -126 -335q-147 -144 -449 -144h-416v1499h295v-551h121q309 0 449 -126q126 -114 126 -343zM856 479q0 116 -60 167q-64 54 -216 54h-113v-452h113q155 0 218 56q58 53 58 175z" />
    <glyph glyph-name="afii10046" unicode="&#x42c;" horiz-adv-x="1261" 
d="M1182 479q0 -211 -128 -335q-149 -144 -448 -144h-428v1499h295v-551h133q309 0 449 -126q127 -114 127 -343zM874 479q0 116 -60 167q-64 54 -216 54h-125v-452h125q155 0 218 56q58 53 58 175z" />
    <glyph glyph-name="afii10047" unicode="&#x42d;" horiz-adv-x="1342" 
d="M1249 750q0 -363 -200 -576q-204 -219 -560 -219q-231 0 -409 92v322q214 -144 407 -144q396 0 455 431v1h-627v240h619q-52 377 -449 377q-204 0 -405 -141v321q172 90 405 90q368 0 569 -217q195 -210 195 -577z" />
    <glyph glyph-name="afii10048" unicode="&#x42e;" horiz-adv-x="2276" 
d="M2183 752q0 -340 -220 -567.5t-542 -227.5q-301 0 -525 197q-228 200 -263 503h-166v-657h-295v1499h295v-594h174q54 281 274 461t506 180q322 0 542 -227t220 -567zM1886 752q0 237 -129 380.5t-336 143.5q-210 0 -350 -143q-145 -148 -145 -381q0 -230 145 -379
q141 -146 350 -146q206 0 335.5 146t129.5 379z" />
    <glyph glyph-name="afii10049" unicode="&#x42f;" horiz-adv-x="1291" 
d="M1118 0h-293v606h-100l-360 -606h-332l405 625q-157 35 -250 140q-100 112 -100 275q0 216 147 337.5t416 121.5h467v-1499zM825 850v403h-172q-264 0 -264 -202q0 -104 50 -149q57 -52 200 -52h186z" />
    <glyph glyph-name="afii10065" unicode="&#x430;" horiz-adv-x="1383" 
d="M1218 0h-279v162q-106 -203 -346 -203q-246 0 -381 169q-125 155 -125 407q0 242 147 408.5t359 166.5q237 0 344 -182h2v141h279v-1069zM939 565q0 129 -67 208q-72 85 -201 85q-123 0 -200 -86q-79 -89 -79 -237q0 -147 71.5 -232.5t190.5 -85.5q146 0 213 78
q72 83 72 270z" />
    <glyph glyph-name="afii10066" unicode="&#x431;" horiz-adv-x="1346" 
d="M1258 522q0 -252 -171 -411q-165 -152 -408 -152q-300 0 -445 214q-123 180 -123 486q0 467 122 678q130 226 436 226q181 0 242 30q52 26 52 97h265q0 -208 -94 -287q-102 -86 -384 -86q-337 0 -337 -391q116 143 311 143q246 0 385 -133q149 -142 149 -414zM963 516
q0 301 -280 301q-121 0 -195.5 -83t-74.5 -218q0 -132 65 -212q71 -87 199 -87q139 0 215 87q71 80 71 212z" />
    <glyph glyph-name="afii10067" unicode="&#x432;" horiz-adv-x="1128" 
d="M1038 299q0 -149 -90 -220q-98 -79 -321 -79h-461v1069h432q379 0 379 -295q0 -62 -37 -122.5t-98 -92.5q95 -24 149 -105q47 -71 47 -155zM698 743q0 109 -120 109h-138v-217h135q123 0 123 108zM748 338q0 117 -146 117h-162v-238h166q142 0 142 121z" />
    <glyph glyph-name="afii10068" unicode="&#x433;" horiz-adv-x="885" 
d="M864 823h-413v-823h-281v1069h694v-246z" />
    <glyph glyph-name="afii10069" unicode="&#x434;" horiz-adv-x="1293" 
d="M1243 -258h-266v258h-698v-258h-267v498q88 0 130 64q51 79 51 276v489h923v-829h127v-498zM836 240v589h-371v-268q0 -141 -29 -223q-16 -43 -57 -98h457z" />
    <glyph glyph-name="afii10070" unicode="&#x435;" horiz-adv-x="1321" 
d="M1236 522h-854q0 -146 70 -231q75 -92 213 -92q198 0 247 137h291q-73 -197 -202 -287t-336 -90q-267 0 -427 172q-151 161 -151 404q0 238 166 406.5t412 168.5q256 0 411 -153q160 -159 160 -435zM931 702q-83 181 -266 181q-179 0 -258 -181h524z" />
    <glyph glyph-name="afii10072" unicode="&#x436;" horiz-adv-x="1653" 
d="M1659 0h-367l-327 467v-467h-277v467l-328 -467h-366l465 567l-430 502h360l299 -412v412h277v-412l299 412h360l-430 -502z" />
    <glyph glyph-name="afii10073" unicode="&#x437;" horiz-adv-x="1126" 
d="M1033 309q0 -166 -135 -259q-130 -91 -350 -91q-226 0 -353 110q-114 99 -114 255h289q0 -144 178 -144q190 0 190 135q0 127 -190 127h-88v203h104q137 0 137 125q0 123 -153 123q-78 0 -111 -29.5t-33 -105.5h-282q0 159 108 253q113 99 318 99q207 0 325 -100
q109 -93 109 -244t-117 -205q168 -72 168 -252z" />
    <glyph glyph-name="afii10074" unicode="&#x438;" horiz-adv-x="1301" 
d="M1136 0h-281v575l-690 -636v1130h280v-547l691 608v-1130z" />
    <glyph glyph-name="afii10075" unicode="&#x439;" horiz-adv-x="1303" 
d="M952 1456q0 -145 -105 -223q-83 -62 -190 -62q-106 0 -188 62q-104 78 -104 223h213q0 -104 79 -104q80 0 80 104h215zM1137 0h-281v575l-690 -636v1130h280v-547l691 608v-1130z" />
    <glyph glyph-name="afii10076" unicode="&#x43a;" horiz-adv-x="1153" 
d="M1153 0h-367l-340 467v-467h-280v1069h280v-412l322 412h360l-452 -502z" />
    <glyph glyph-name="afii10077" unicode="&#x43b;" horiz-adv-x="1247" 
d="M1079 0h-280v834h-350v-465q0 -229 -73 -319q-61 -75 -198 -75q-107 0 -178 35v248q55 -31 102 -31q76 0 76 142v700h901v-1069z" />
    <glyph glyph-name="afii10078" unicode="&#x43c;" horiz-adv-x="1384" 
d="M1372 0h-284l-105 457l-291 -506l-291 506l-104 -457h-285l275 1130l405 -700l406 700z" />
    <glyph glyph-name="afii10079" unicode="&#x43d;" horiz-adv-x="1317" 
d="M1151 0h-281v434h-424v-434h-280v1069h280v-401h424v401h281v-1069z" />
    <glyph glyph-name="afii10080" unicode="&#x43e;" horiz-adv-x="1348" 
d="M1262 535q0 -240 -163 -406q-169 -170 -425 -170t-425 170q-163 166 -163 406t163 405q169 170 425 170t425 -170q163 -165 163 -405zM958 535q0 153 -82 238q-77 79 -202 79t-202 -79q-83 -86 -83 -238q0 -153 83 -238q77 -80 202 -80t202 80q82 85 82 238z" />
    <glyph glyph-name="afii10081" unicode="&#x43f;" horiz-adv-x="1303" 
d="M1137 0h-281v823h-410v-823h-280v1069h971v-1069z" />
    <glyph glyph-name="afii10082" unicode="&#x440;" horiz-adv-x="1383" 
d="M1296 535q0 -266 -148 -425q-142 -151 -362 -151q-238 0 -344 178q0 -21 3.5 -64.5t3.5 -72.5v-614h-283v1683h276v-154q102 195 344 195q247 0 384 -168q126 -156 126 -407zM993 535q0 329 -268 329q-283 0 -283 -360q0 -127 68 -205q72 -82 199 -82q284 0 284 318z" />
    <glyph glyph-name="afii10083" unicode="&#x441;" horiz-adv-x="1082" 
d="M1002 31q-162 -68 -307 -68q-262 0 -432 154q-176 159 -176 415q0 247 174 412.5t434 165.5q148 0 307 -68v-294q-167 98 -286 98q-324 0 -324 -314q0 -305 324 -305q152 0 286 105v-301z" />
    <glyph glyph-name="afii10084" unicode="&#x442;" horiz-adv-x="882" 
d="M878 823h-296v-823h-283v823h-295v246h874v-246z" />
    <glyph glyph-name="afii10085" unicode="&#x443;" horiz-adv-x="1194" 
d="M1212 1069l-708 -1683h-299l270 639l-475 1044h307l314 -702l297 702h294z" />
    <glyph glyph-name="afii10086" unicode="&#x444;" horiz-adv-x="1868" 
d="M1778 553q0 -553 -537 -553q-95 0 -168 41v-655h-278v655q-73 -41 -168 -41q-537 0 -537 553q0 262 148 411q144 146 389 146q89 0 168 -23v603h278v-603q79 23 168 23q245 0 389 -146q148 -149 148 -411zM1481 553q0 317 -271 317q-102 0 -137 -32v-566q61 -49 137 -49
q271 0 271 330zM795 272v566q-35 32 -138 32q-270 0 -270 -317q0 -330 270 -330q77 0 138 49z" />
    <glyph glyph-name="afii10087" unicode="&#x445;" horiz-adv-x="1129" 
d="M1132 0h-324l-244 344l-243 -344h-324l408 549l-388 520h320l227 -307l228 307h319l-387 -520z" />
    <glyph glyph-name="afii10088" unicode="&#x446;" horiz-adv-x="1295" 
d="M1246 -258h-266v258h-809v1069h281v-829h387v829h280v-829h127v-498z" />
    <glyph glyph-name="afii10089" unicode="&#x447;" horiz-adv-x="1129" 
d="M958 0h-280v375q-97 -23 -180 -23q-392 0 -392 402v315h277v-319q0 -104 27 -137t106 -33q96 0 162 22v467h280v-1069z" />
    <glyph glyph-name="afii10090" unicode="&#x448;" horiz-adv-x="1776" 
d="M1610 0h-1444v1069h276v-829h308v829h276v-829h307v829h277v-1069z" />
    <glyph glyph-name="afii10091" unicode="&#x449;" horiz-adv-x="1783" 
d="M1735 -258h-260v258h-1309v1069h276v-829h308v829h276v-829h307v829h277v-829h125v-498z" />
    <glyph glyph-name="afii10092" unicode="&#x44a;" horiz-adv-x="1191" 
d="M1116 340q0 -340 -411 -340h-461v829h-244v240h524v-387h181q214 0 321 -109q90 -90 90 -233zM825 340q0 52 -39 86q-44 39 -122 39h-140v-248h140q161 0 161 123z" />
    <glyph glyph-name="afii10093" unicode="&#x44b;" horiz-adv-x="1585" 
d="M1419 0h-280v1069h280v-1069zM1008 340q0 -340 -412 -340h-430v1069h280v-387h150q214 0 322 -109q90 -90 90 -233zM717 340q0 52 -40 86q-44 39 -122 39h-109v-248h109q162 0 162 123z" />
    <glyph glyph-name="afii10094" unicode="&#x44c;" horiz-adv-x="1119" 
d="M1044 340q0 -340 -411 -340h-461v1069h281v-387h180q214 0 321 -109q90 -90 90 -233zM754 340q0 52 -40 86q-44 39 -122 39h-139v-248h139q162 0 162 123z" />
    <glyph glyph-name="afii10095" unicode="&#x44d;" horiz-adv-x="1049" 
d="M959 532q0 -269 -154.5 -419t-428.5 -150q-140 0 -295 68v256q113 -90 276 -90q259 0 301 243h-415v217h409q-58 220 -295 220q-146 0 -276 -78v243q152 68 295 68q272 0 427.5 -155t155.5 -423z" />
    <glyph glyph-name="afii10096" unicode="&#x44e;" horiz-adv-x="1805" 
d="M1718 537q0 -240 -158 -406q-163 -170 -409 -170q-218 0 -373 138q-149 132 -182 337h-150v-436h-280v1069h280v-412h154q39 197 186 324q154 131 365 131q246 0 409 -170q158 -166 158 -405zM1423 537q0 153 -78 238q-74 79 -194 79q-121 0 -195 -79q-79 -86 -79 -238
q0 -153 79 -238q75 -80 195 -80t194 80q78 85 78 238z" />
    <glyph glyph-name="afii10097" unicode="&#x44f;" horiz-adv-x="1120" 
d="M954 0h-280v379h-97l-239 -379h-316l289 418q-221 86 -221 307q0 150 100 241q113 103 326 103h438v-1069zM674 575v273h-111q-182 0 -182 -129q0 -144 182 -144h111z" />
    <glyph glyph-name="afii10071" unicode="&#x451;" horiz-adv-x="1315" 
d="M1034 1391q0 -63 -44.5 -108.5t-108.5 -45.5q-63 0 -108.5 45.5t-45.5 108.5t45.5 108t108.5 45q64 0 108.5 -45t44.5 -108zM600 1391q0 -63 -45 -108.5t-109 -45.5q-63 0 -108 45.5t-45 108.5t45 108t108 45q64 0 109 -45t45 -108zM1236 522h-854q0 -146 70 -231
q75 -92 213 -92q198 0 247 137h291q-73 -197 -202 -287t-336 -90q-267 0 -427 172q-151 161 -151 404q0 238 166 406.5t412 168.5q256 0 411 -153q160 -159 160 -435zM931 702q-83 181 -266 181q-179 0 -258 -181h524z" />
    <glyph glyph-name="afii10099" unicode="&#x452;" 
d="M1243 473l-162 -166l-204 203q-119 -51 -232 -51q-101 0 -229 51l-205 -203l-164 166l197 197q-70 118 -70 235q0 120 70 238l-197 196l164 164l205 -203q126 54 229 54q95 0 229 -56l207 205l162 -164l-196 -196q71 -119 71 -238q0 -108 -69 -219zM864 909
q0 104 -61 162q-57 55 -154 55t-155 -55q-62 -58 -62 -162q0 -108 61 -167q58 -56 156 -56q95 0 155 58.5t60 164.5z" />
    <glyph glyph-name="afii10100" unicode="&#x453;" 
d="M1243 473l-162 -166l-204 203q-119 -51 -232 -51q-101 0 -229 51l-205 -203l-164 166l197 197q-70 118 -70 235q0 120 70 238l-197 196l164 164l205 -203q126 54 229 54q95 0 229 -56l207 205l162 -164l-196 -196q71 -119 71 -238q0 -108 -69 -219zM864 909
q0 104 -61 162q-57 55 -154 55t-155 -55q-62 -58 -62 -162q0 -108 61 -167q58 -56 156 -56q95 0 155 58.5t60 164.5z" />
    <glyph glyph-name="afii10101" unicode="&#x454;" 
d="M1243 473l-162 -166l-204 203q-119 -51 -232 -51q-101 0 -229 51l-205 -203l-164 166l197 197q-70 118 -70 235q0 120 70 238l-197 196l164 164l205 -203q126 54 229 54q95 0 229 -56l207 205l162 -164l-196 -196q71 -119 71 -238q0 -108 -69 -219zM864 909
q0 104 -61 162q-57 55 -154 55t-155 -55q-62 -58 -62 -162q0 -108 61 -167q58 -56 156 -56q95 0 155 58.5t60 164.5z" />
    <glyph glyph-name="afii10102" unicode="&#x455;" 
d="M1243 473l-162 -166l-204 203q-119 -51 -232 -51q-101 0 -229 51l-205 -203l-164 166l197 197q-70 118 -70 235q0 120 70 238l-197 196l164 164l205 -203q126 54 229 54q95 0 229 -56l207 205l162 -164l-196 -196q71 -119 71 -238q0 -108 -69 -219zM864 909
q0 104 -61 162q-57 55 -154 55t-155 -55q-62 -58 -62 -162q0 -108 61 -167q58 -56 156 -56q95 0 155 58.5t60 164.5z" />
    <glyph glyph-name="afii10103" unicode="&#x456;" 
d="M1243 473l-162 -166l-204 203q-119 -51 -232 -51q-101 0 -229 51l-205 -203l-164 166l197 197q-70 118 -70 235q0 120 70 238l-197 196l164 164l205 -203q126 54 229 54q95 0 229 -56l207 205l162 -164l-196 -196q71 -119 71 -238q0 -108 -69 -219zM864 909
q0 104 -61 162q-57 55 -154 55t-155 -55q-62 -58 -62 -162q0 -108 61 -167q58 -56 156 -56q95 0 155 58.5t60 164.5z" />
    <glyph glyph-name="afii10104" unicode="&#x457;" 
d="M1243 473l-162 -166l-204 203q-119 -51 -232 -51q-101 0 -229 51l-205 -203l-164 166l197 197q-70 118 -70 235q0 120 70 238l-197 196l164 164l205 -203q126 54 229 54q95 0 229 -56l207 205l162 -164l-196 -196q71 -119 71 -238q0 -108 -69 -219zM864 909
q0 104 -61 162q-57 55 -154 55t-155 -55q-62 -58 -62 -162q0 -108 61 -167q58 -56 156 -56q95 0 155 58.5t60 164.5z" />
    <glyph glyph-name="afii10105" unicode="&#x458;" 
d="M1243 473l-162 -166l-204 203q-119 -51 -232 -51q-101 0 -229 51l-205 -203l-164 166l197 197q-70 118 -70 235q0 120 70 238l-197 196l164 164l205 -203q126 54 229 54q95 0 229 -56l207 205l162 -164l-196 -196q71 -119 71 -238q0 -108 -69 -219zM864 909
q0 104 -61 162q-57 55 -154 55t-155 -55q-62 -58 -62 -162q0 -108 61 -167q58 -56 156 -56q95 0 155 58.5t60 164.5z" />
    <glyph glyph-name="afii1016" unicode="&#x459;" 
d="M1243 473l-162 -166l-204 203q-119 -51 -232 -51q-101 0 -229 51l-205 -203l-164 166l197 197q-70 118 -70 235q0 120 70 238l-197 196l164 164l205 -203q126 54 229 54q95 0 229 -56l207 205l162 -164l-196 -196q71 -119 71 -238q0 -108 -69 -219zM864 909
q0 104 -61 162q-57 55 -154 55t-155 -55q-62 -58 -62 -162q0 -108 61 -167q58 -56 156 -56q95 0 155 58.5t60 164.5z" />
    <glyph glyph-name="afii10107" unicode="&#x45a;" 
d="M1243 473l-162 -166l-204 203q-119 -51 -232 -51q-101 0 -229 51l-205 -203l-164 166l197 197q-70 118 -70 235q0 120 70 238l-197 196l164 164l205 -203q126 54 229 54q95 0 229 -56l207 205l162 -164l-196 -196q71 -119 71 -238q0 -108 -69 -219zM864 909
q0 104 -61 162q-57 55 -154 55t-155 -55q-62 -58 -62 -162q0 -108 61 -167q58 -56 156 -56q95 0 155 58.5t60 164.5z" />
    <glyph glyph-name="afii10108" unicode="&#x45b;" 
d="M1243 473l-162 -166l-204 203q-119 -51 -232 -51q-101 0 -229 51l-205 -203l-164 166l197 197q-70 118 -70 235q0 120 70 238l-197 196l164 164l205 -203q126 54 229 54q95 0 229 -56l207 205l162 -164l-196 -196q71 -119 71 -238q0 -108 -69 -219zM864 909
q0 104 -61 162q-57 55 -154 55t-155 -55q-62 -58 -62 -162q0 -108 61 -167q58 -56 156 -56q95 0 155 58.5t60 164.5z" />
    <glyph glyph-name="afii10109" unicode="&#x45c;" 
d="M1243 473l-162 -166l-204 203q-119 -51 -232 -51q-101 0 -229 51l-205 -203l-164 166l197 197q-70 118 -70 235q0 120 70 238l-197 196l164 164l205 -203q126 54 229 54q95 0 229 -56l207 205l162 -164l-196 -196q71 -119 71 -238q0 -108 -69 -219zM864 909
q0 104 -61 162q-57 55 -154 55t-155 -55q-62 -58 -62 -162q0 -108 61 -167q58 -56 156 -56q95 0 155 58.5t60 164.5z" />
    <glyph glyph-name="afii10110" unicode="&#x45e;" 
d="M1243 473l-162 -166l-204 203q-119 -51 -232 -51q-101 0 -229 51l-205 -203l-164 166l197 197q-70 118 -70 235q0 120 70 238l-197 196l164 164l205 -203q126 54 229 54q95 0 229 -56l207 205l162 -164l-196 -196q71 -119 71 -238q0 -108 -69 -219zM864 909
q0 104 -61 162q-57 55 -154 55t-155 -55q-62 -58 -62 -162q0 -108 61 -167q58 -56 156 -56q95 0 155 58.5t60 164.5z" />
    <glyph glyph-name="afii10193" unicode="&#x45f;" 
d="M1243 473l-162 -166l-204 203q-119 -51 -232 -51q-101 0 -229 51l-205 -203l-164 166l197 197q-70 118 -70 235q0 120 70 238l-197 196l164 164l205 -203q126 54 229 54q95 0 229 -56l207 205l162 -164l-196 -196q71 -119 71 -238q0 -108 -69 -219zM864 909
q0 104 -61 162q-57 55 -154 55t-155 -55q-62 -58 -62 -162q0 -108 61 -167q58 -56 156 -56q95 0 155 58.5t60 164.5z" />
    <glyph glyph-name="afii10050" unicode="&#x490;" 
d="M1243 473l-162 -166l-204 203q-119 -51 -232 -51q-101 0 -229 51l-205 -203l-164 166l197 197q-70 118 -70 235q0 120 70 238l-197 196l164 164l205 -203q126 54 229 54q95 0 229 -56l207 205l162 -164l-196 -196q71 -119 71 -238q0 -108 -69 -219zM864 909
q0 104 -61 162q-57 55 -154 55t-155 -55q-62 -58 -62 -162q0 -108 61 -167q58 -56 156 -56q95 0 155 58.5t60 164.5z" />
    <glyph glyph-name="afii10098" unicode="&#x491;" 
d="M1243 473l-162 -166l-204 203q-119 -51 -232 -51q-101 0 -229 51l-205 -203l-164 166l197 197q-70 118 -70 235q0 120 70 238l-197 196l164 164l205 -203q126 54 229 54q95 0 229 -56l207 205l162 -164l-196 -196q71 -119 71 -238q0 -108 -69 -219zM864 909
q0 104 -61 162q-57 55 -154 55t-155 -55q-62 -58 -62 -162q0 -108 61 -167q58 -56 156 -56q95 0 155 58.5t60 164.5z" />
    <glyph glyph-name="endash" unicode="&#x2013;" horiz-adv-x="1024" 
d="M1036 469h-1048v197h1048v-197z" />
    <glyph glyph-name="emdash" unicode="&#x2014;" horiz-adv-x="2048" 
d="M2060 469h-2072v197h2072v-197z" />
    <glyph glyph-name="quoteleft" unicode="&#x2018;" horiz-adv-x="600" 
d="M537 1544l-131 -561h-340l262 561h209z" />
    <glyph glyph-name="quoteright" unicode="&#x2019;" horiz-adv-x="600" 
d="M540 1544l-262 -561h-209l131 561h340z" />
    <glyph glyph-name="quotesinglbase" unicode="&#x201a;" horiz-adv-x="600" 
d="M530 303l-262 -561h-209l131 561h340z" />
    <glyph glyph-name="quotedblleft" unicode="&#x201c;" horiz-adv-x="1024" 
d="M983 1544l-131 -561h-340l262 561h209zM520 1544l-131 -561h-340l262 561h209z" />
    <glyph glyph-name="quotedblright" unicode="&#x201d;" horiz-adv-x="1024" 
d="M983 1544l-262 -561h-209l131 561h340zM520 1544l-262 -561h-209l131 561h340z" />
    <glyph glyph-name="quotedblbase" unicode="&#x201e;" horiz-adv-x="1024" 
d="M983 303l-262 -561h-209l131 561h340zM520 303l-262 -561h-209l131 561h340z" />
    <glyph glyph-name="dagger" unicode="&#x2020;" 
d="M1155 707h-338v-1149h-344v1149h-338v294h338v482h344v-482h338v-294z" />
    <glyph glyph-name="doubledagger" unicode="&#x2021;" 
d="M1243 473l-162 -166l-204 203q-119 -51 -232 -51q-101 0 -229 51l-205 -203l-164 166l197 197q-70 118 -70 235q0 120 70 238l-197 196l164 164l205 -203q126 54 229 54q95 0 229 -56l207 205l162 -164l-196 -196q71 -119 71 -238q0 -108 -69 -219zM864 909
q0 104 -61 162q-57 55 -154 55t-155 -55q-62 -58 -62 -162q0 -108 61 -167q58 -56 156 -56q95 0 155 58.5t60 164.5z" />
    <glyph glyph-name="bullet" unicode="&#x2022;" horiz-adv-x="1237" 
d="M922 780q0 -124 -90.5 -214.5t-215.5 -90.5t-213 90t-88 215t89 213t214 88q123 0 213.5 -89t90.5 -212z" />
    <glyph glyph-name="ellipsis" unicode="&#x2026;" horiz-adv-x="2048" 
d="M1887 143q0 -72 -51 -122t-125 -50q-72 0 -124 50.5t-52 121.5q0 74 52 127.5t124 53.5q73 0 124.5 -53.5t51.5 -127.5zM1199 143q0 -72 -51.5 -122t-125.5 -50q-72 0 -124 50.5t-52 121.5q0 74 52 127.5t124 53.5q73 0 125 -53.5t52 -127.5zM514 143q0 -72 -51 -122
t-125 -50q-72 0 -124 50.5t-52 121.5q0 74 52 127.5t124 53.5q73 0 124.5 -53.5t51.5 -127.5z" />
    <glyph glyph-name="perthousand" unicode="&#x2030;" horiz-adv-x="2550" 
d="M2501 377q0 -196 -92 -307t-255 -111t-254.5 110.5t-91.5 307.5q0 193 92 302t254 109q166 0 256.5 -107t90.5 -304zM1673 377q0 -197 -91.5 -307.5t-254.5 -110.5t-254.5 110.5t-91.5 307.5q0 193 92 302t254 109q166 0 256 -107t90 -304zM1397 1516l-928 -1557h-147
l927 1557h148zM737 1102q0 -197 -89.5 -306.5t-252.5 -109.5t-254.5 110t-91.5 306q0 193 92.5 303.5t253.5 110.5q164 0 253 -108.5t89 -305.5zM2294 377q0 266 -140 266q-135 0 -135 -270q0 -267 135 -267q140 0 140 271zM1464 377q0 266 -137 266q-135 0 -135 -270
q0 -267 135 -267q137 0 137 271zM528 1102q0 266 -133 266q-135 0 -135 -266q0 -271 135 -271q133 0 133 271z" />
    <glyph glyph-name="guilsinglleft" unicode="&#x2039;" horiz-adv-x="768" 
d="M631 160h-242l-252 372l2 3l-2 2l6 2l4 5l242 365h242l-195 -374z" />
    <glyph glyph-name="guillsinglright" unicode="&#x203a;" horiz-adv-x="768" 
d="M631 532l-6 -2l-246 -370h-242l195 375l-195 374h242l87 -130l159 -240l6 -2l-2 -2l1 -1z" />
    <glyph glyph-name="afii61352" unicode="&#x2116;" horiz-adv-x="2423" 
d="M2312 735q0 -177 -95.5 -277t-264.5 -100q-170 0 -265.5 100t-95.5 277q0 174 96 272.5t265 98.5q172 0 266 -97t94 -274zM2294 0h-684v240h684v-240zM1440 -74l-979 940v-866h-281v1573l979 -938v866h281v-1575zM2095 735q0 205 -143 205q-142 0 -142 -209
q0 -207 142 -207q143 0 143 211z" />
    <glyph glyph-name="trademark" unicode="&#x2122;" horiz-adv-x="1748" 
d="M1520 879h-154v464l-176 -464h-70l-178 464v-464h-154v620h224l143 -377l139 377h226v-620zM662 1372h-191v-493h-168v493h-192v127h551v-127z" />
    </font>
</defs>
</svg>
