<svg xmlns="http://www.w3.org/2000/svg" viewBox="0 0 329 329"><path d="M42.392 103.5H0v122h42.392L171.86 322h39.659V7H171.86zm211.768 25.618l-16.336 25.162c5.655 3.672 9.032 9.874 9.032 16.589 0 6.716-3.376 12.918-9.031 16.589l16.334 25.163c14.213-9.226 22.697-24.834 22.697-41.752 0-16.916-8.484-32.525-22.696-41.751z"/><path d="M292.88 93.049l-19.377 22.902C289.707 129.661 299 149.678 299 170.87s-9.293 41.209-25.497 54.918l19.377 22.902c22.955-19.421 36.12-47.785 36.12-77.82s-13.165-58.4-36.12-77.821z"/></svg>