<svg xmlns="http://www.w3.org/2000/svg" viewBox="0 0 512 512"><path d="M469.331 170.67h-5.91L390.144 42.68c-5.677-9.896-14.845-16.969-25.814-19.906-10.917-2.917-22.335-1.385-32.106 4.302L21.141 208.17C.953 219.92-5.996 246.025 5.64 266.347l5.278 9.219.004.01 8.82 15.398L64 368.256v79.747c0 23.531 19.137 42.667 42.669 42.667H469.33c23.533 0 42.669-19.135 42.669-42.667V213.337c.001-23.531-19.136-42.667-42.668-42.667zM64.002 325.302l-8.147-14.232 8.147-4.743v18.975zm0-111.965v19.096l-39.859 23.203c-5.762-10.172-2.306-23.173 7.744-29.029l32.699-19.035c-.261 1.904-.584 3.791-.584 5.765zm339.374-104.595l35.454 61.928H297.007l106.369-61.928zm-60.407-63.228c4.833-2.813 10.459-3.594 15.844-2.135 5.448 1.458 9.99 4.979 12.813 9.906l.022.039L170.086 170.67h-42.111L342.969 45.514zm-86.961 306.49a10.66 10.66 0 0 1-10.667 10.667h-106.67c-5.896 0-10.667-4.771-10.667-10.667s4.771-10.667 10.667-10.667h106.67a10.66 10.66 0 0 1 10.667 10.667zm32.001 74.666H138.671c-5.896 0-10.667-4.771-10.667-10.667s4.771-10.667 10.667-10.667h149.338c5.896 0 10.667 4.771 10.667 10.667s-4.771 10.667-10.667 10.667zm116.004 0c-7 0-13.802-1.625-20.001-4.75a44.271 44.271 0 0 1-20.001 4.75c-24.261 0-44.001-19.135-44.001-42.667s19.74-42.667 44.001-42.667c7 0 13.803 1.625 20.001 4.75 6.198-3.125 13-4.75 20.001-4.75 24.261 0 44.001 19.135 44.001 42.667s-19.74 42.667-44.001 42.667z"/></svg>